<svg width="152.000000" height="40.000000" viewBox="0 0 152 40" fill="none" xmlns="http://www.w3.org/2000/svg" xmlns:xlink="http://www.w3.org/1999/xlink">
	<desc>
			Created with Pixso.
	</desc>
	<defs>
		<clipPath id="clip5_3386">
			<rect id="rev1 1" rx="-0.500000" width="151.000000" height="39.000000" transform="translate(0.500000 0.500000)" fill="white" fill-opacity="0"/>
		</clipPath>
	</defs>
	<rect id="rev1 1" rx="-0.500000" width="151.000000" height="39.000000" transform="translate(0.500000 0.500000)" fill="#FFFFFF" fill-opacity="0"/>
	<g clip-path="url(#clip5_3386)">
		<path id="Vector" d="M17.36 16.49L20.43 16.49L20.43 35.21L17.36 35.21L17.36 16.49Z" fill="#FFFFFF" fill-opacity="1.000000" fill-rule="nonzero"/>
		<path id="Vector" d="M31.12 29.27C31.12 32.17 28.71 32.44 27.91 32.44C26.04 32.44 25.77 30.72 25.77 29.8L25.77 22.55L22.7 22.55L22.7 29.67C22.7 31.38 23.24 32.96 24.3 33.89C25.24 34.81 26.44 35.21 27.91 35.21C28.98 35.21 30.32 34.94 31.12 34.15L31.12 35.21L34.19 35.21L34.19 22.55L31.12 22.55L31.12 29.27Z" fill="#FFFFFF" fill-opacity="1.000000" fill-rule="nonzero"/>
		<path id="Vector" d="M40.2 17.94L37.13 17.94L37.13 22.55L34.86 22.55L34.86 25.45L37.13 25.45L37.13 35.21L40.2 35.21L40.2 25.45L42.47 25.45L42.47 22.55L40.2 22.55L40.2 17.94Z" fill="#FFFFFF" fill-opacity="1.000000" fill-rule="nonzero"/>
		<path id="Vector" d="M52.09 31.38C51.42 31.91 50.49 32.31 49.55 32.31C47.41 32.31 45.94 30.72 45.94 28.62C45.94 26.51 47.41 25.06 49.55 25.06C50.49 25.06 51.42 25.32 52.09 25.98L52.49 26.37L54.63 24.4L54.09 24C52.89 22.95 51.29 22.29 49.55 22.29C45.81 22.29 43.01 25.06 43.01 28.75C43.01 32.44 45.81 35.21 49.55 35.21C51.29 35.21 52.89 34.55 54.09 33.49L54.63 33.1L52.49 30.99L52.09 31.38Z" fill="#FFFFFF" fill-opacity="1.000000" fill-rule="nonzero"/>
		<path id="Vector" d="M65.44 23.61C64.51 22.68 63.57 22.29 62.11 22.29C61.04 22.29 59.97 22.55 59.17 23.34L59.17 16.49L56.09 16.49L56.09 35.21L59.17 35.21L59.17 28.22C59.17 25.32 61.17 25.06 61.97 25.06C63.84 25.06 63.71 26.77 63.71 27.69L63.71 35.07L66.78 35.07L66.78 27.82C66.78 26.11 66.38 24.53 65.44 23.61Z" fill="#FFFFFF" fill-opacity="1.000000" fill-rule="nonzero"/>
		<path id="Vector" d="M49.42 30.86C50.6 30.86 51.55 29.91 51.55 28.75C51.55 27.58 50.6 26.64 49.42 26.64C48.24 26.64 47.28 27.58 47.28 28.75C47.28 29.91 48.24 30.86 49.42 30.86Z" fill="#EF4335" fill-opacity="1.000000" fill-rule="nonzero"/>
		<path id="Vector" d="M13.09 30.59C12.02 31.65 10.41 32.31 8.68 32.31C5.34 32.31 2.93 29.67 2.93 26.11C2.93 22.55 5.34 19.92 8.81 19.92C10.41 19.92 12.02 20.57 13.22 21.76L13.62 22.16L15.62 20.18L15.22 19.78C13.49 18.07 11.22 17.15 8.81 17.15C3.73 17.02 0 20.97 0 26.11C0 31.25 3.73 35.21 8.68 35.21C11.08 35.21 13.49 34.28 15.09 32.57L15.49 32.17L13.49 30.2L13.09 30.59Z" fill="#FFFFFF" fill-opacity="1.000000" fill-rule="nonzero"/>
		<path id="reviewed on" d="M58.87 7.05C58.87 4.99 57.58 3.52 55.52 3.52C53.45 3.52 52.16 4.99 52.16 7.05C52.16 9.11 53.45 10.58 55.52 10.58C57.58 10.58 58.87 9.11 58.87 7.05ZM4.36 10.46L5.48 10.46L3.82 7.43C4.7 7.21 5.25 6.69 5.25 5.61C5.25 3.98 4 3.65 2.27 3.65L0 3.65L0 10.46L1 10.46L1 7.59L2.27 7.59C2.45 7.59 2.62 7.59 2.81 7.58L4.36 10.46ZM6.69 10.46L11.55 10.46L11.55 9.63L7.7 9.63L7.7 7.37L11.32 7.37L11.32 6.54L7.7 6.54L7.7 4.47L11.55 4.47L11.55 3.65L6.69 3.65L6.69 10.46ZM12.01 3.65L14.46 10.46L15.67 10.46L18.1 3.65L17.04 3.65L15.1 9.47L13.11 3.65L12.01 3.65ZM20.05 3.65L19.04 3.65L19.04 10.46L20.05 10.46L20.05 3.65ZM21.75 10.46L26.6 10.46L26.6 9.63L22.76 9.63L22.76 7.37L26.38 7.37L26.38 6.54L22.76 6.54L22.76 4.47L26.6 4.47L26.6 3.65L21.75 3.65L21.75 10.46ZM32.11 3.65L30.92 3.65L29.6 9.37L28.22 3.65L27.11 3.65L28.93 10.46L30.15 10.46L31.5 4.86L32.88 10.46L34.11 10.46L35.9 3.65L34.84 3.65L33.52 9.37L32.11 3.65ZM36.9 10.46L41.76 10.46L41.76 9.63L37.91 9.63L37.91 7.37L41.53 7.37L41.53 6.54L37.91 6.54L37.91 4.47L41.76 4.47L41.76 3.65L36.9 3.65L36.9 10.46ZM42.95 3.65L42.95 10.46L44.91 10.46C47.17 10.46 48.81 9.64 48.81 7.05C48.81 4.46 47.17 3.65 44.91 3.65L42.95 3.65ZM65.98 10.46L65.98 3.65L64.97 3.65L64.97 9.45L61.71 3.65L60.23 3.65L60.23 10.46L61.23 10.46L61.23 4.64L64.51 10.46L65.98 10.46ZM53.19 7.05C53.19 5.29 54.21 4.33 55.52 4.33C56.82 4.33 57.84 5.29 57.84 7.05C57.84 8.81 56.82 9.77 55.52 9.77C54.21 9.77 53.19 8.81 53.19 7.05ZM2.34 4.45C3.4 4.45 4.21 4.58 4.21 5.63C4.21 6.68 3.4 6.79 2.34 6.79L1 6.79L1 4.45L2.34 4.45ZM47.78 7.05C47.78 9.37 46.35 9.65 44.88 9.65L43.96 9.65L43.96 4.45L44.88 4.45C46.35 4.45 47.78 4.74 47.78 7.05Z" fill="#ADACB6" fill-opacity="1.000000" fill-rule="evenodd"/>
		<path id="20 reviews" d="M83.43 25.88C81.57 25.88 80.36 27.03 80.36 28.79C80.36 28.82 80.36 28.85 80.36 28.87L81.51 28.87C81.54 27.37 82.46 26.83 83.41 26.83C84.47 26.83 85.06 27.46 85.06 28.41C85.06 30.03 83.24 31.73 80.12 34.1L80.12 35.13L86.48 35.13L86.48 34.06L81.63 34.06C84.1 32.22 86.23 30.36 86.23 28.26C86.23 26.72 85.06 25.88 83.43 25.88ZM94.39 30.58C94.39 27.71 93.31 25.88 90.96 25.88C88.61 25.88 87.52 27.71 87.52 30.58C87.52 33.45 88.61 35.29 90.96 35.29C93.31 35.29 94.39 33.45 94.39 30.58ZM144.12 28.36C144.12 29.86 145.32 30.56 146.54 30.84L147.64 31.08C148.73 31.34 149.54 31.72 149.54 32.68C149.54 33.58 148.79 34.21 147.48 34.21C146.12 34.21 145.27 33.56 145.04 32.31L143.82 32.31C144.06 34.11 145.37 35.29 147.46 35.29C149.21 35.29 150.82 34.34 150.82 32.57C150.82 30.74 149.2 30.21 147.84 29.91L146.82 29.67C145.99 29.49 145.38 29.09 145.38 28.28C145.38 27.27 146.58 26.96 147.26 26.96C148.14 26.96 149.16 27.32 149.45 28.36L150.66 28.36C150.31 26.62 148.9 25.88 147.31 25.88C145.88 25.88 144.12 26.62 144.12 28.36ZM104.32 35.13L105.7 35.13L103.66 31.09C104.74 30.79 105.41 30.1 105.41 28.66C105.41 26.48 103.88 26.04 101.73 26.04L98.93 26.04L98.93 35.13L100.17 35.13L100.17 31.3L101.73 31.3C101.96 31.3 102.17 31.3 102.4 31.29L104.32 35.13ZM107.2 35.13L113.19 35.13L113.19 34.02L108.44 34.02L108.44 31L112.91 31L112.91 29.9L108.44 29.9L108.44 27.14L113.19 27.14L113.19 26.04L107.2 26.04L107.2 35.13ZM113.76 26.04L116.79 35.13L118.28 35.13L121.27 26.04L119.97 26.04L117.57 33.81L115.12 26.04L113.76 26.04ZM123.68 26.04L122.44 26.04L122.44 35.13L123.68 35.13L123.68 26.04ZM125.78 35.13L131.78 35.13L131.78 34.02L127.02 34.02L127.02 31L131.49 31L131.49 29.9L127.02 29.9L127.02 27.14L131.78 27.14L131.78 26.04L125.78 26.04L125.78 35.13ZM138.56 26.04L137.1 26.04L135.47 33.67L133.76 26.04L132.4 26.04L134.64 35.13L136.15 35.13L137.82 27.66L139.53 35.13L141.04 35.13L143.24 26.04L141.94 26.04L140.31 33.67L138.56 26.04ZM93.21 30.58C93.21 33.12 92.36 34.34 90.96 34.34C89.56 34.34 88.71 33.12 88.71 30.58C88.71 28.06 89.56 26.83 90.96 26.83C92.34 26.83 93.21 28.06 93.21 30.58ZM101.83 27.12C103.13 27.12 104.13 27.28 104.13 28.68C104.13 30.09 103.13 30.23 101.83 30.23L100.17 30.23L100.17 27.12L101.83 27.12Z" fill="#ADACB6" fill-opacity="1.000000" fill-rule="evenodd"/>
		<path id="Vector" d="M86.77 3.12C86.94 2.77 87.44 2.77 87.61 3.12L89.16 6.25C89.23 6.39 89.36 6.48 89.51 6.51L92.97 7.01C93.35 7.06 93.51 7.54 93.23 7.81L90.73 10.24C90.62 10.35 90.57 10.51 90.59 10.66L91.18 14.1C91.25 14.48 90.85 14.77 90.5 14.59L87.41 12.97C87.27 12.9 87.11 12.9 86.97 12.97L83.88 14.59C83.53 14.77 83.13 14.48 83.2 14.1L83.79 10.66C83.81 10.51 83.76 10.35 83.65 10.24L81.15 7.81C80.87 7.54 81.02 7.06 81.41 7.01L84.87 6.51C85.02 6.48 85.15 6.39 85.22 6.25L86.77 3.12Z" fill="#EF4335" fill-opacity="1.000000" fill-rule="nonzero"/>
		<path id="Vector" d="M100.91 3.12C101.08 2.77 101.58 2.77 101.75 3.12L103.3 6.25C103.37 6.39 103.5 6.48 103.65 6.51L107.11 7.01C107.49 7.06 107.65 7.54 107.37 7.81L104.87 10.24C104.76 10.35 104.71 10.51 104.73 10.66L105.32 14.1C105.39 14.48 104.99 14.77 104.64 14.59L101.55 12.97C101.41 12.9 101.25 12.9 101.11 12.97L98.02 14.59C97.67 14.77 97.27 14.48 97.33 14.1L97.93 10.66C97.95 10.51 97.9 10.35 97.79 10.24L95.29 7.81C95.01 7.54 95.16 7.06 95.55 7.01L99.01 6.51C99.16 6.48 99.29 6.39 99.36 6.25L100.91 3.12Z" fill="#EF4335" fill-opacity="1.000000" fill-rule="nonzero"/>
		<path id="Vector" d="M115.05 3.12C115.22 2.77 115.72 2.77 115.89 3.12L117.44 6.25C117.51 6.39 117.64 6.48 117.79 6.51L121.25 7.01C121.63 7.06 121.79 7.54 121.51 7.81L119.01 10.24C118.9 10.35 118.85 10.51 118.87 10.66L119.46 14.1C119.53 14.48 119.12 14.77 118.78 14.59L115.69 12.97C115.55 12.9 115.39 12.9 115.25 12.97L112.16 14.59C111.81 14.77 111.41 14.48 111.47 14.1L112.07 10.66C112.09 10.51 112.04 10.35 111.93 10.24L109.43 7.81C109.15 7.54 109.3 7.06 109.69 7.01L113.15 6.51C113.3 6.48 113.43 6.39 113.5 6.25L115.05 3.12Z" fill="#EF4335" fill-opacity="1.000000" fill-rule="nonzero"/>
		<path id="Vector" d="M129.19 3.12C129.36 2.77 129.86 2.77 130.03 3.12L131.58 6.25C131.64 6.39 131.78 6.48 131.93 6.51L135.39 7.01C135.77 7.06 135.93 7.54 135.65 7.81L133.15 10.24C133.03 10.35 132.99 10.51 133.01 10.66L133.6 14.1C133.67 14.48 133.26 14.77 132.92 14.59L129.83 12.97C129.69 12.9 129.53 12.9 129.39 12.97L126.3 14.59C125.95 14.77 125.55 14.48 125.61 14.1L126.2 10.66C126.23 10.51 126.18 10.35 126.07 10.24L123.57 7.81C123.29 7.54 123.44 7.06 123.83 7.01L127.29 6.51C127.44 6.48 127.57 6.39 127.64 6.25L129.19 3.12Z" fill="#EF4335" fill-opacity="1.000000" fill-rule="nonzero"/>
		<path id="Vector" d="M143.32 3.12C143.5 2.77 144 2.77 144.17 3.12L145.72 6.25C145.78 6.39 145.92 6.48 146.07 6.51L149.53 7.01C149.91 7.06 150.07 7.54 149.79 7.81L147.29 10.24C147.17 10.35 147.12 10.51 147.15 10.66L147.74 14.1C147.81 14.48 147.4 14.77 147.06 14.59L143.97 12.97C143.83 12.9 143.67 12.9 143.53 12.97L140.44 14.59C140.09 14.77 139.69 14.48 139.75 14.1L140.34 10.66C140.37 10.51 140.32 10.35 140.21 10.24L137.71 7.81C137.43 7.54 137.58 7.06 137.97 7.01L141.42 6.51C141.58 6.48 141.71 6.39 141.78 6.25L143.32 3.12Z" fill="#EF4335" fill-opacity="1.000000" fill-rule="nonzero"/>
	</g>
</svg>
