<svg width="18.000000" height="18.000000" viewBox="0 0 18 18" fill="none" xmlns="http://www.w3.org/2000/svg" xmlns:xlink="http://www.w3.org/1999/xlink">
	<desc>
			Created with Pixso.
	</desc>
	<defs>
		<clipPath id="clip8_1493">
			<rect id="Icon" rx="-0.500000" width="17.000000" height="17.000000" transform="translate(0.500000 0.500000)" fill="white" fill-opacity="0"/>
		</clipPath>
	</defs>
	<rect id="Icon" rx="-0.500000" width="17.000000" height="17.000000" transform="translate(0.500000 0.500000)" fill="#FFFFFF" fill-opacity="0"/>
	<g clip-path="url(#clip8_1493)">
		<path id="Vector" d="M8.99 16.5C4.85 16.5 1.49 13.14 1.49 9C1.49 4.85 4.85 1.5 8.99 1.5C13.14 1.5 16.49 4.85 16.49 9C16.49 13.14 13.14 16.5 8.99 16.5ZM8.99 15C10.59 15 12.11 14.36 13.24 13.24C14.36 12.11 14.99 10.59 14.99 9C14.99 7.4 14.36 5.88 13.24 4.75C12.11 3.63 10.59 3 8.99 3C7.4 3 5.88 3.63 4.75 4.75C3.63 5.88 2.99 7.4 2.99 9C2.99 10.59 3.63 12.11 4.75 13.24C5.88 14.36 7.4 15 8.99 15ZM9.74 9L12.74 9L12.74 10.5L8.24 10.5L8.24 5.25L9.74 5.25L9.74 9Z" fill="#ADACB6" fill-opacity="1.000000" fill-rule="nonzero"/>
	</g>
</svg>
