<svg>
    <symbol id="facebook" viewBox="0 0 11 20" fill="none" xmlns="http://www.w3.org/2000/svg">
        <g>
            <path d="M6.89634 20V10.877H10.029L10.498 7.32176H6.89634V5.05161C6.89634 4.02257 7.18856 3.3208 8.69882 3.3208L10.6249 3.32V0.140034C10.2918 0.0968232 9.14821 0 7.81886 0C5.04146 0 3.14075 1.6572 3.14075 4.69953V7.32176H-9.15527e-05V10.877H3.14075V20H6.89634Z"
                  fill="white"/>
        </g>
    </symbol>

    <symbol id="linkedin" viewBox="0 0 20 19" fill="none" xmlns="http://www.w3.org/2000/svg">
        <g>
            <path d="M2.40228 4.50424C3.74303 4.50424 4.80446 3.48293 4.80446 2.25212C4.80446 1.02131 3.7151 0 2.40228 0C1.06152 0 9.15527e-05 1.02131 9.15527e-05 2.25212C9.15527e-05 3.48293 1.06152 4.50424 2.40228 4.50424Z"
                  fill="white"/>
            <path d="M4.46706 6.23218H0.305145V18.7498H4.46706V6.23218Z" fill="white"/>
            <path d="M11.2012 12.544C11.2012 10.9204 11.5364 9.32295 13.6872 9.32295C15.8101 9.32295 15.838 11.1823 15.838 12.6488V18.7242H19.9999V11.8631C19.9999 8.48495 19.2178 5.8924 15.028 5.8924C13.0168 5.8924 11.6481 6.93989 11.0895 7.90883H11.0336V6.20664H7.06723V18.7242H11.2012V12.544Z"
                  fill="white"/>
        </g>
    </symbol>

    <symbol id="x" viewBox="0 0 20 18" fill="none" xmlns="http://www.w3.org/2000/svg">
        <g>
            <path d="M15.6071 0.1875H18.5971L12.0646 7.65438L19.75 17.8131H13.7326L9.02012 11.6511L3.62675 17.8131H0.635125L7.62263 9.82619L0.25 0.188313H6.42013L10.6801 5.82056L15.6071 0.1875ZM14.5581 16.0239H16.2148L5.51988 1.88319H3.74212L14.5581 16.0239Z"
                  fill="white"/>
        </g>
    </symbol>

    <symbol id="youtube" viewBox="0 0 24 18" fill="none" xmlns="http://www.w3.org/2000/svg">
        <g>
            <path d="M9.54541 12.6405V5.3596L15.8182 9.00016L9.54541 12.6405ZM23.4985 3.06861C23.2224 2.00836 22.4091 1.17337 21.3766 0.889997C19.505 0.375 11.9999 0.375 11.9999 0.375C11.9999 0.375 4.49498 0.375 2.62339 0.889997C1.59085 1.17337 0.777578 2.00836 0.501545 3.06861C0 4.99036 0 9.00005 0 9.00005C0 9.00005 0 13.0095 0.501545 14.9314C0.777578 15.9917 1.59075 16.8266 2.62339 17.1102C4.49498 17.625 11.9999 17.625 11.9999 17.625C11.9999 17.625 19.505 17.625 21.3766 17.1102C22.4091 16.8266 23.2224 15.9917 23.4985 14.9314C24 13.0095 24 8.99995 24 8.99995C24 8.99995 24 4.99036 23.4985 3.06861Z"
                  fill="white"/>
        </g>
    </symbol>
</svg>