<svg>
    <symbol id="facebook" viewBox="0 0 11 20" fill="none" xmlns="http://www.w3.org/2000/svg">
        <g>
            <path d="M6.89634 20V10.877H10.029L10.498 7.32176H6.89634V5.05161C6.89634 4.02257 7.18856 3.3208 8.69882 3.3208L10.6249 3.32V0.140034C10.2918 0.0968232 9.14821 0 7.81886 0C5.04146 0 3.14075 1.6572 3.14075 4.69953V7.32176H-9.15527e-05V10.877H3.14075V20H6.89634Z"
                  fill="white"/>
        </g>
    </symbol>

    <symbol id="linkedin" viewBox="0 0 20 19" fill="none" xmlns="http://www.w3.org/2000/svg">
        <g>
            <path d="M2.40228 4.50424C3.74303 4.50424 4.80446 3.48293 4.80446 2.25212C4.80446 1.02131 3.7151 0 2.40228 0C1.06152 0 9.15527e-05 1.02131 9.15527e-05 2.25212C9.15527e-05 3.48293 1.06152 4.50424 2.40228 4.50424Z"
                  fill="white"/>
            <path d="M4.46706 6.23218H0.305145V18.7498H4.46706V6.23218Z" fill="white"/>
            <path d="M11.2012 12.544C11.2012 10.9204 11.5364 9.32295 13.6872 9.32295C15.8101 9.32295 15.838 11.1823 15.838 12.6488V18.7242H19.9999V11.8631C19.9999 8.48495 19.2178 5.8924 15.028 5.8924C13.0168 5.8924 11.6481 6.93989 11.0895 7.90883H11.0336V6.20664H7.06723V18.7242H11.2012V12.544Z"
                  fill="white"/>
        </g>
    </symbol>

    <symbol id="x" viewBox="0 0 20 18" fill="none" xmlns="http://www.w3.org/2000/svg">
        <g>
            <path d="M15.6071 0.1875H18.5971L12.0646 7.65438L19.75 17.8131H13.7326L9.02012 11.6511L3.62675 17.8131H0.635125L7.62263 9.82619L0.25 0.188313H6.42013L10.6801 5.82056L15.6071 0.1875ZM14.5581 16.0239H16.2148L5.51988 1.88319H3.74212L14.5581 16.0239Z"
                  fill="white"/>
        </g>
    </symbol>

    <symbol id="youtube" viewBox="0 0 24 18" fill="none" xmlns="http://www.w3.org/2000/svg">
        <g>
            <path d="M9.54541 12.6405V5.3596L15.8182 9.00016L9.54541 12.6405ZM23.4985 3.06861C23.2224 2.00836 22.4091 1.17337 21.3766 0.889997C19.505 0.375 11.9999 0.375 11.9999 0.375C11.9999 0.375 4.49498 0.375 2.62339 0.889997C1.59085 1.17337 0.777578 2.00836 0.501545 3.06861C0 4.99036 0 9.00005 0 9.00005C0 9.00005 0 13.0095 0.501545 14.9314C0.777578 15.9917 1.59075 16.8266 2.62339 17.1102C4.49498 17.625 11.9999 17.625 11.9999 17.625C11.9999 17.625 19.505 17.625 21.3766 17.1102C22.4091 16.8266 23.2224 15.9917 23.4985 14.9314C24 13.0095 24 8.99995 24 8.99995C24 8.99995 24 4.99036 23.4985 3.06861Z"
                  fill="white"/>
        </g>
    </symbol>

    <symbol id="logo" viewBox="0 0 112 26" fill="none" xmlns="http://www.w3.org/2000/svg">
        <path d="M6.99302 18.3565C4.73641 18.3565 2.81871 16.6362 2.81871 12.8865C2.81871 9.13688 4.73641 7.44238 6.99302 7.44238C9.41839 7.44238 11.0761 9.47305 11.0761 12.8865C11.0761 16.3 9.41839 18.3565 6.99302 18.3565ZM7.67354 4.99115C6.72878 4.93801 5.78743 5.14365 4.95089 5.5859C4.11435 6.02815 3.41433 6.69026 2.92623 7.50091V5.27289H0V25.3781H2.92623V18.3007C3.41357 19.1099 4.11207 19.7711 4.94677 20.2132C5.78147 20.6554 6.72083 20.8619 7.66401 20.8105C11.1891 20.8105 14.2065 17.8502 14.2065 12.8865C14.212 7.94597 11.1945 4.99115 7.66946 4.99115H7.67354Z" fill="white"/>
        <path d="M19.9141 5.27269H16.9811V20.4442H19.9141V5.27269Z" fill="white"/>
        <path d="M39.612 11.4482C39.6189 10.8904 39.739 10.3398 39.965 9.82974C40.1911 9.31972 40.5183 8.86092 40.927 8.48116C41.3356 8.10141 41.8172 7.8086 42.3424 7.62049C42.8675 7.43238 43.4255 7.35289 43.9823 7.38685C44.5192 7.37771 45.0524 7.47635 45.5505 7.67694C46.0486 7.87753 46.5014 8.17599 46.8821 8.55467C47.2628 8.93334 47.5637 9.38453 47.7669 9.88153C47.9702 10.3785 48.0717 10.9113 48.0654 11.4482H39.612ZM44.0109 4.99142C42.992 4.96865 41.9795 5.15872 41.0382 5.54948C40.0969 5.94024 39.2475 6.5231 38.5443 7.26079C37.841 7.99848 37.2994 8.87478 36.9541 9.83368C36.6088 10.7926 36.4673 11.813 36.5388 12.8296C36.5388 17.2285 39.1901 20.8094 44.0966 20.8094C45.6126 20.8998 47.1142 20.4716 48.3545 19.5952C49.5948 18.7188 50.4999 17.4464 50.9209 15.9872H47.9592C47.6294 16.746 47.0659 17.3797 46.3508 17.7959C45.6357 18.2121 44.8064 18.389 43.9837 18.301C41.6155 18.301 39.8393 16.5521 39.5562 13.7606H51.1169C51.4272 8.82682 48.6942 4.99142 44.0109 4.99142Z"  fill="white"/>
        <path d="M56.6901 0H53.757V20.4442H56.6901V0Z" fill="white"/>
        <path d="M67.2376 18.356C64.9823 18.356 63.0646 16.6357 63.0646 12.886C63.0646 9.13636 64.9823 7.44187 67.2376 7.44187C69.6629 7.44187 71.3207 9.47254 71.3207 12.886C71.3207 16.2995 69.6629 18.356 67.2376 18.356ZM67.9181 4.99064C66.9749 4.93927 66.0356 5.14575 65.2009 5.58792C64.3662 6.03008 63.6677 6.69124 63.1803 7.5004V5.27238H60.2446V25.3776H63.1776V18.3002C63.6649 19.1094 64.3634 19.7705 65.1981 20.2127C66.0328 20.6549 66.9722 20.8614 67.9154 20.81C71.4405 20.81 74.4579 17.8497 74.4579 12.886C74.4565 7.94546 71.4391 4.99064 67.9154 4.99064H67.9181Z"  fill="white"/>
        <path d="M80.1587 0H77.2256V20.4442H80.1587V0Z" fill="white"/>
        <path d="M85.9046 11.4482C85.9115 10.8902 86.0316 10.3395 86.2577 9.8294C86.4839 9.31929 86.8113 8.86043 87.2201 8.48065C87.6289 8.10087 88.1105 7.80809 88.6359 7.62007C89.1612 7.43205 89.7193 7.3527 90.2763 7.38685C90.8131 7.37771 91.3464 7.47635 91.8445 7.67694C92.3426 7.87753 92.7954 8.17599 93.1761 8.55467C93.5568 8.93334 93.8576 9.38453 94.0609 9.88153C94.2642 10.3785 94.3656 10.9113 94.3594 11.4482H85.9046ZM90.3035 4.99142C89.2846 4.96865 88.2721 5.15872 87.3308 5.54948C86.3895 5.94024 85.5401 6.5231 84.8369 7.26079C84.1336 7.99848 83.592 8.87478 83.2467 9.83368C82.9014 10.7926 82.7599 11.813 82.8314 12.8296C82.8314 17.2285 85.4827 20.8094 90.3892 20.8094C91.9052 20.8998 93.4068 20.4716 94.6471 19.5952C95.8874 18.7188 96.7925 17.4464 97.2135 15.9872H94.2532C93.9232 16.7459 93.3596 17.3794 92.6446 17.7956C91.9295 18.2117 91.1003 18.3888 90.2776 18.301C87.908 18.301 86.1319 16.5521 85.8502 13.7606H97.4108C97.7198 8.82682 94.9855 4.99142 90.3035 4.99142Z"  fill="white"/>
        <path d="M22.174 5.27402L27.3909 12.6903L21.8351 20.4482H25.137L28.9996 14.9782L32.8622 20.4482H36.3587L25.6433 5.27402H22.174Z" fill="white"/>
        <path d="M35.8551 5.27269H32.6118V8.51605H35.8551V5.27269Z"  fill="white"/>
        <path d="M101.286 5.27402H97.818L103.035 12.6903L97.4791 20.4482H100.778L104.641 14.9782L108.503 20.4482H112L101.286 5.27402Z" fill="white"/>
        <path d="M111.498 5.27269H108.254V8.51605H111.498V5.27269Z" fill="white"/>
    </symbol>
</svg>

